<?xml version="1.0" encoding="utf-8"?>
<!-- Generator: Adobe Illustrator 17.0.0, SVG Export Plug-In . SVG Version: 6.00 Build 0)  -->
<!DOCTYPE svg PUBLIC "-//W3C//DTD SVG 1.1//EN" "http://www.w3.org/Graphics/SVG/1.1/DTD/svg11.dtd">
<svg version="1.1" id="Capa_1" xmlns="http://www.w3.org/2000/svg" xmlns:xlink="http://www.w3.org/1999/xlink" x="0px" y="0px"
	 width="322.222px" height="136.364px" viewBox="0 0 322.222 136.364" enable-background="new 0 0 322.222 136.364"
	 xml:space="preserve">
<g>
	<g>
		<path fill="#FFFFFF" d="M123.295,28.055v62.329h-6.177V28.055H99.506v-5.901h41.307v5.901H123.295z"/>
		<path fill="#FFFFFF" d="M182.579,90.384V64.66c0-3.688-0.447-6.715-1.336-9.082c-0.893-2.365-2.076-4.255-3.551-5.67
			c-1.105-0.922-2.566-1.798-4.379-2.627c-1.814-0.83-4.288-1.245-7.422-1.245c-5.225,0-9.313,1.445-12.263,4.333
			c-2.951,2.89-4.426,6.947-4.426,12.171v27.845h-5.809V23.538h5.809l0.184,23.05c2.029-2.151,4.486-3.718,7.376-4.702
			c2.889-0.982,5.839-1.475,8.852-1.475c0.86,0,1.89,0.046,3.089,0.138c1.198,0.092,2.473,0.308,3.826,0.646
			c1.352,0.338,2.767,0.83,4.241,1.475c1.474,0.646,2.951,1.553,4.425,2.72c4.855,4.119,7.283,10.542,7.283,19.27v25.725H182.579z"
			/>
		<path fill="#FFFFFF" d="M236.979,90.384l-0.092-7.376c-2.337,2.766-5.133,4.872-8.391,6.315
			c-3.259,1.443-6.947,2.167-11.064,2.167c-3.996,0-7.576-0.724-10.741-2.167c-3.167-1.443-5.855-3.35-8.068-5.717
			c-2.213-2.365-3.904-5.085-5.07-8.16c-1.169-3.072-1.752-6.237-1.752-9.496c0-3.38,0.599-6.607,1.798-9.681
			c1.198-3.073,2.904-5.777,5.117-8.114c2.213-2.335,4.901-4.209,8.067-5.624c3.165-1.414,6.715-2.121,10.649-2.121h25.355v49.974
			H236.979z M217.432,46.035c-2.705,0-5.271,0.493-7.699,1.476c-2.429,0.984-4.533,2.351-6.315,4.103
			c-1.783,1.751-3.197,3.842-4.241,6.27c-1.046,2.429-1.567,5.117-1.567,8.068c0,2.337,0.415,4.688,1.244,7.053
			c0.83,2.367,2.075,4.504,3.734,6.408c1.66,1.906,3.749,3.458,6.271,4.656c2.52,1.199,5.47,1.799,8.851,1.799
			c2.951,0,5.608-0.537,7.976-1.613c2.366-1.075,4.41-2.504,6.132-4.288c1.659-1.659,2.98-3.749,3.965-6.27
			c0.798-2.213,1.198-9.682,1.198-22.405v-5.256H217.432z"/>
		<path fill="#FFFFFF" d="M249.149,90.384V23.538h5.809v66.847H249.149z"/>
		<path fill="#FFFFFF" d="M298.107,90.384l-0.093-5.256c-2.028,2.091-4.487,3.674-7.376,4.748c-2.89,1.075-5.871,1.614-8.943,1.614
			c-0.309,0-1-0.016-2.075-0.046c-1.076-0.031-2.351-0.185-3.826-0.461c-1.475-0.277-3.089-0.768-4.841-1.476
			c-1.752-0.706-3.396-1.706-4.933-2.997c-2.274-2.027-4.042-4.67-5.302-7.929c-1.261-3.257-1.89-7.038-1.89-11.341V41.517h5.809
			v25.724c0,3.688,0.445,6.717,1.337,9.083c0.891,2.367,2.104,4.257,3.642,5.67c1.598,1.415,3.412,2.413,5.44,2.996
			c2.028,0.586,4.087,0.877,6.178,0.877c5.348,0,9.496-1.46,12.447-4.38c2.95-2.919,4.426-7.084,4.426-12.494V41.517h5.809v48.867
			H298.107z M271.828,39.12l-2.858-4.887l23.235-13.554l2.95,4.887L271.828,39.12z"/>
	</g>
	<path fill="#FFFFFF" d="M36.476,26.18c5.56-0.468,14.11-1.508,25.675-3.104c4.37-0.597,8.538-0.896,12.493-0.889
		c0.917,0.002,1.806,0.04,2.683,0.102c-7.28-7.929-17.533-12.921-28.941-12.954c-13.597-0.038-25.606,6.942-32.879,17.616
		c0.689-0.014,1.424-0.03,2.199-0.042C24.678,26.896,30.936,26.657,36.476,26.18"/>
	<path fill="#FFFFFF" d="M40.096,37.894c0.152-1.229,0.219-1.86,0.219-1.897c0.009-1.229-0.642-1.853-1.94-1.853
		c-2.107-0.009-6.105,0.251-12.026,0.779c-5.917,0.562-10.132,0.838-12.655,0.833c-1.003,0-1.886-0.053-2.702-0.141
		c-1.778,4.668-2.791,9.74-2.815,15.064c-0.038,18.408,11.524,34.029,27.56,39.486c-0.087-1.787-0.125-3.796-0.119-6.067
		C35.64,76.215,37.134,60.805,40.096,37.894"/>
	<path fill="#FFFFFF" d="M83.785,31.608c-1.129-0.016-2.619-0.125-4.494-0.332c-2.033-0.19-4.772-0.286-8.242-0.297
		c-3.572-0.009-7.91,0.24-12.988,0.755c-5.116,0.506-7.938,1.354-8.502,2.547c-0.557,1.197-1.5,8.254-2.809,21.174
		c-1.313,12.922-1.976,22.552-2,28.889c0,2.301,0.275,4.902,0.805,7.767c0.867,0.059,1.723,0.142,2.602,0.142
		c22.141,0.069,40.137-18.445,40.197-41.34C88.369,43.941,86.716,37.38,83.785,31.608"/>
</g>
<g>
	<g>
		<path fill="#FFFFFF" d="M87.965,120.076v-12.467c0-0.277,0.251-0.416,0.755-0.416h0.151c0.503,0,0.755,0.139,0.755,0.416v12.467
			c0,0.277-0.252,0.416-0.755,0.416H88.72C88.216,120.492,87.965,120.353,87.965,120.076z"/>
		<path fill="#FFFFFF" d="M93.102,120.076v-6.631c0-0.83-0.038-1.426-0.113-1.784c-0.076-0.359-0.113-0.558-0.113-0.595
			c0-0.152,0.12-0.262,0.359-0.331c0.239-0.069,0.459-0.104,0.661-0.104c0.176,0,0.305,0.092,0.387,0.274
			c0.082,0.183,0.145,0.375,0.189,0.576c0.044,0.202,0.072,0.334,0.085,0.396c0.403-0.44,0.862-0.786,1.379-1.038
			c0.516-0.252,1.039-0.379,1.568-0.379c0.957,0,1.709,0.271,2.257,0.813c0.548,0.542,0.822,1.291,0.822,2.248v6.555
			c0,0.277-0.252,0.416-0.756,0.416h-0.075c-0.504,0-0.756-0.139-0.756-0.416v-6.403c0-0.579-0.167-1.03-0.5-1.351
			c-0.334-0.321-0.809-0.482-1.426-0.482c-0.428,0-0.853,0.12-1.275,0.359c-0.422,0.239-0.791,0.561-1.105,0.963v6.914
			c0,0.277-0.252,0.416-0.756,0.416h-0.076C93.354,120.492,93.102,120.353,93.102,120.076z"/>
		<path fill="#FFFFFF" d="M104.039,120.076v-8.142h-0.755c-0.126,0-0.221-0.044-0.284-0.132s-0.094-0.232-0.094-0.435v-0.227
			c0-0.202,0.031-0.347,0.094-0.435s0.158-0.133,0.284-0.133h0.755v-1.794c0-0.995,0.246-1.679,0.737-2.05s1.058-0.557,1.7-0.557
			c0.919,0,1.379,0.188,1.379,0.566c0,0.126-0.038,0.305-0.113,0.538c-0.076,0.233-0.17,0.35-0.284,0.35
			c-0.063,0-0.154-0.016-0.274-0.048c-0.12-0.031-0.299-0.047-0.538-0.047c-0.328,0-0.58,0.092-0.756,0.273
			c-0.176,0.184-0.264,0.559-0.264,1.125v1.643h1.643c0.139,0,0.236,0.045,0.293,0.133s0.085,0.232,0.085,0.435v0.227
			c0,0.202-0.028,0.347-0.085,0.435s-0.154,0.132-0.293,0.132h-1.643v8.142c0,0.277-0.252,0.416-0.756,0.416h-0.075
			C104.291,120.492,104.039,120.353,104.039,120.076z"/>
		<path fill="#FFFFFF" d="M110.301,119.283c-0.75-0.856-1.124-2.098-1.124-3.722c0-1.637,0.377-2.896,1.133-3.778
			c0.755-0.881,1.838-1.322,3.249-1.322c1.385,0,2.446,0.438,3.183,1.313c0.736,0.875,1.105,2.138,1.105,3.787
			c0,1.638-0.362,2.881-1.086,3.731c-0.724,0.85-1.792,1.274-3.202,1.274C112.136,120.567,111.05,120.139,110.301,119.283z
			 M115.543,118.31c0.441-0.599,0.661-1.527,0.661-2.787c0-1.259-0.22-2.191-0.661-2.795c-0.441-0.605-1.121-0.907-2.04-0.907
			c-0.919,0-1.593,0.3-2.021,0.897s-0.642,1.533-0.642,2.805c0,1.26,0.214,2.188,0.642,2.787c0.428,0.598,1.102,0.896,2.021,0.896
			C114.422,119.207,115.102,118.908,115.543,118.31z"/>
		<path fill="#FFFFFF" d="M120.587,120.076v-6.631c0-0.83-0.038-1.426-0.113-1.784c-0.076-0.359-0.113-0.558-0.113-0.595
			c0-0.152,0.119-0.262,0.359-0.331c0.239-0.069,0.459-0.104,0.661-0.104c0.176,0,0.305,0.092,0.387,0.274
			c0.082,0.183,0.145,0.375,0.189,0.576c0.044,0.202,0.072,0.334,0.085,0.396c0.667-0.944,1.397-1.417,2.191-1.417
			c0.353,0,0.624,0.07,0.813,0.208c0.189,0.14,0.283,0.315,0.283,0.529s-0.038,0.438-0.113,0.671
			c-0.076,0.232-0.164,0.35-0.265,0.35c-0.063,0-0.186-0.035-0.368-0.104s-0.406-0.104-0.67-0.104c-0.29,0-0.564,0.086-0.822,0.256
			c-0.258,0.17-0.476,0.355-0.652,0.557c-0.176,0.202-0.265,0.315-0.265,0.34v6.914c0,0.277-0.252,0.416-0.755,0.416h-0.076
			C120.838,120.492,120.587,120.353,120.587,120.076z"/>
		<path fill="#FFFFFF" d="M139.514,111.131c0.592,0.447,0.888,1.244,0.888,2.39v6.555c0,0.277-0.252,0.416-0.756,0.416h-0.076
			c-0.503,0-0.755-0.139-0.755-0.416v-6.403c0-0.567-0.154-1.014-0.463-1.341c-0.309-0.328-0.759-0.492-1.351-0.492
			c-0.806,0-1.581,0.441-2.323,1.322c0.012,0.089,0.019,0.215,0.019,0.379v6.535c0,0.277-0.252,0.416-0.755,0.416h-0.076
			c-0.504,0-0.755-0.139-0.755-0.416v-6.403c0-0.567-0.155-1.014-0.463-1.341c-0.309-0.328-0.759-0.492-1.351-0.492
			c-0.403,0-0.778,0.098-1.124,0.293c-0.347,0.195-0.63,0.406-0.85,0.633c-0.221,0.227-0.331,0.354-0.331,0.378v6.933
			c0,0.277-0.252,0.416-0.755,0.416h-0.076c-0.504,0-0.756-0.139-0.756-0.416v-6.631c0-0.83-0.038-1.426-0.113-1.784
			c-0.076-0.359-0.113-0.558-0.113-0.595c0-0.152,0.12-0.262,0.359-0.331s0.459-0.104,0.661-0.104c0.176,0,0.305,0.092,0.387,0.274
			s0.145,0.375,0.189,0.576c0.044,0.202,0.072,0.334,0.085,0.396c0.353-0.403,0.777-0.739,1.275-1.011
			c0.497-0.271,1.029-0.406,1.596-0.406c0.566,0,1.098,0.117,1.596,0.35c0.497,0.233,0.865,0.64,1.105,1.219
			c0.39-0.453,0.847-0.828,1.369-1.124s1.067-0.444,1.634-0.444C138.23,110.46,138.922,110.685,139.514,111.131z"/>
		<path fill="#FFFFFF" d="M143.632,119.849c-0.592-0.479-0.888-1.184-0.888-2.115c0-0.995,0.299-1.741,0.897-2.238
			c0.598-0.498,1.332-0.818,2.201-0.964c0.869-0.145,1.927-0.224,3.174-0.236v-0.888c0-0.466-0.164-0.847-0.491-1.143
			c-0.328-0.296-0.857-0.444-1.587-0.444c-0.554,0-1.039,0.066-1.455,0.198c-0.416,0.133-0.762,0.265-1.039,0.396
			c-0.277,0.133-0.428,0.199-0.453,0.199c-0.126,0-0.268-0.126-0.425-0.379c-0.157-0.251-0.236-0.439-0.236-0.566
			c0-0.163,0.167-0.34,0.5-0.528c0.333-0.188,0.777-0.35,1.332-0.481c0.554-0.133,1.127-0.199,1.719-0.199
			c1.171,0,2.084,0.262,2.739,0.784s0.982,1.25,0.982,2.183v4.23c0,0.832,0.038,1.426,0.113,1.785
			c0.076,0.359,0.113,0.558,0.113,0.596c0,0.15-0.12,0.261-0.359,0.33s-0.459,0.104-0.661,0.104c-0.176,0-0.305-0.098-0.387-0.293
			s-0.145-0.398-0.189-0.613s-0.072-0.353-0.085-0.416c-0.856,0.945-1.914,1.417-3.173,1.417
			C145.004,120.567,144.223,120.328,143.632,119.849z M147.646,118.848c0.447-0.228,0.903-0.548,1.37-0.964v-2.229
			c-0.945,0.013-1.716,0.051-2.314,0.113s-1.124,0.239-1.577,0.529c-0.453,0.289-0.68,0.736-0.68,1.341
			c0,0.504,0.135,0.888,0.406,1.152c0.271,0.265,0.671,0.396,1.2,0.396C146.666,119.188,147.198,119.075,147.646,118.848z
			 M146.182,109.214c0-0.088,0.091-0.303,0.273-0.643s0.457-0.824,0.822-1.455c0.101-0.176,0.246-0.302,0.435-0.377
			c0.189-0.076,0.435-0.113,0.737-0.113c0.314,0,0.544,0.019,0.689,0.057c0.145,0.037,0.217,0.101,0.217,0.189
			c0,0.1-0.095,0.268-0.283,0.5c-0.189,0.232-0.687,0.797-1.493,1.69c-0.202,0.227-0.522,0.34-0.963,0.34
			C146.326,109.403,146.182,109.34,146.182,109.214z"/>
		<path fill="#FFFFFF" d="M154.881,119.991c-0.498-0.384-0.747-1.061-0.747-2.03v-6.026h-0.944c-0.126,0-0.22-0.044-0.283-0.132
			c-0.063-0.088-0.095-0.232-0.095-0.435v-0.227c0-0.202,0.031-0.347,0.095-0.435c0.063-0.088,0.157-0.133,0.283-0.133h0.944
			l0.227-1.982c0.038-0.277,0.239-0.416,0.604-0.416h0.189c0.377,0,0.566,0.139,0.566,0.416v1.982h1.587
			c0.138,0,0.236,0.045,0.292,0.133s0.085,0.232,0.085,0.435v0.227c0,0.202-0.028,0.347-0.085,0.435s-0.154,0.132-0.292,0.132
			h-1.587v5.875c0,0.528,0.091,0.894,0.274,1.096s0.431,0.302,0.746,0.302c0.239,0,0.418-0.016,0.539-0.047
			c0.12-0.031,0.21-0.047,0.274-0.047c0.113,0,0.208,0.116,0.283,0.35c0.076,0.232,0.113,0.412,0.113,0.538
			c0,0.378-0.46,0.566-1.379,0.566C155.941,120.567,155.378,120.375,154.881,119.991z"/>
		<path fill="#FFFFFF" d="M160.217,108.365v-1.059c0-0.303,0.302-0.453,0.907-0.453c0.554,0,0.831,0.15,0.831,0.453v1.059
			c0,0.302-0.302,0.453-0.907,0.453C160.494,108.818,160.217,108.667,160.217,108.365z M160.292,120.076v-9.123
			c0-0.277,0.252-0.416,0.756-0.416h0.076c0.503,0,0.755,0.139,0.755,0.416v9.123c0,0.277-0.252,0.416-0.755,0.416h-0.076
			C160.544,120.492,160.292,120.353,160.292,120.076z"/>
		<path fill="#FFFFFF" d="M165.714,119.358c-0.769-0.806-1.152-2.103-1.152-3.892c0-1.801,0.428-3.085,1.284-3.854
			c0.856-0.768,1.92-1.152,3.192-1.152c0.73,0,1.385,0.089,1.965,0.266c0.579,0.176,0.869,0.377,0.869,0.604
			c0,0.164-0.072,0.375-0.217,0.633c-0.145,0.258-0.274,0.388-0.387,0.388c-0.025,0-0.054-0.01-0.085-0.028
			c-0.031-0.02-0.072-0.035-0.123-0.047c-0.68-0.303-1.367-0.454-2.059-0.454c-1.826,0-2.739,1.203-2.739,3.608
			c0,1.334,0.224,2.298,0.671,2.89c0.447,0.593,1.199,0.888,2.257,0.888c0.768,0,1.479-0.163,2.134-0.49l0.208-0.076
			c0.125,0,0.265,0.123,0.416,0.368c0.151,0.245,0.227,0.444,0.227,0.595c0,0.152-0.135,0.3-0.406,0.444
			c-0.271,0.146-0.633,0.269-1.086,0.368c-0.453,0.102-0.944,0.151-1.473,0.151C167.647,120.567,166.482,120.164,165.714,119.358z"
			/>
		<path fill="#FFFFFF" d="M174.554,119.849c-0.592-0.479-0.888-1.184-0.888-2.115c0-0.995,0.299-1.741,0.897-2.238
			c0.599-0.498,1.331-0.818,2.2-0.964c0.869-0.145,1.927-0.224,3.173-0.236v-0.888c0-0.466-0.164-0.847-0.49-1.143
			c-0.328-0.296-0.857-0.444-1.588-0.444c-0.555,0-1.039,0.066-1.453,0.198c-0.416,0.133-0.764,0.265-1.039,0.396
			c-0.277,0.133-0.43,0.199-0.455,0.199c-0.125,0-0.267-0.126-0.424-0.379c-0.157-0.251-0.236-0.439-0.236-0.566
			c0-0.163,0.167-0.34,0.5-0.528c0.334-0.188,0.777-0.35,1.332-0.481c0.555-0.133,1.126-0.199,1.718-0.199
			c1.172,0,2.084,0.262,2.74,0.784c0.654,0.522,0.982,1.25,0.982,2.183v4.23c0,0.832,0.037,1.426,0.113,1.785
			c0.074,0.359,0.113,0.558,0.113,0.596c0,0.15-0.121,0.261-0.359,0.33c-0.24,0.069-0.461,0.104-0.662,0.104
			c-0.176,0-0.305-0.098-0.387-0.293s-0.145-0.398-0.189-0.613c-0.043-0.215-0.072-0.353-0.084-0.416
			c-0.857,0.945-1.914,1.417-3.173,1.417C175.925,120.567,175.146,120.328,174.554,119.849z M178.568,118.848
			c0.447-0.228,0.904-0.548,1.369-0.964v-2.229c-0.943,0.013-1.715,0.051-2.314,0.113c-0.597,0.063-1.123,0.239-1.576,0.529
			c-0.453,0.289-0.68,0.736-0.68,1.341c0,0.504,0.135,0.888,0.406,1.152c0.27,0.265,0.67,0.396,1.199,0.396
			C177.589,119.188,178.12,119.075,178.568,118.848z"/>
		<path fill="#FFFFFF" d="M198.997,119.462c0.075,0.232,0.113,0.412,0.113,0.538c0,0.378-0.46,0.566-1.379,0.566
			c-0.354,0-0.702-0.06-1.049-0.179c-0.347-0.12-0.64-0.331-0.878-0.633c-0.378,0.227-0.828,0.418-1.351,0.576
			c-0.523,0.156-1.1,0.235-1.729,0.235c-0.681,0-1.342-0.136-1.983-0.406c-0.643-0.271-1.175-0.702-1.597-1.294
			s-0.633-1.341-0.633-2.248c0-0.919,0.239-1.688,0.718-2.305c0.479-0.616,1.032-1.007,1.662-1.171v-0.075
			c-0.566-0.227-1.032-0.579-1.397-1.059c-0.365-0.479-0.548-1.051-0.548-1.719c0-1.032,0.35-1.819,1.049-2.361
			c0.698-0.541,1.621-0.813,2.767-0.813c0.416,0,0.787,0.045,1.115,0.133c0.327,0.088,0.491,0.246,0.491,0.473
			c0,0.113-0.038,0.296-0.114,0.547c-0.075,0.253-0.176,0.379-0.302,0.379c-0.063,0-0.205-0.029-0.425-0.086
			c-0.221-0.057-0.463-0.084-0.728-0.084c-0.869,0-1.464,0.204-1.785,0.613c-0.321,0.41-0.481,0.866-0.481,1.369
			c0,0.354,0.088,0.703,0.265,1.049c0.176,0.347,0.456,0.639,0.84,0.879c0.385,0.238,0.86,0.358,1.427,0.358h2.229l0.227-1.983
			c0.038-0.277,0.239-0.416,0.604-0.416h0.189c0.378,0,0.566,0.139,0.566,0.416v1.983h1.587c0.139,0,0.236,0.044,0.293,0.132
			c0.057,0.089,0.085,0.233,0.085,0.436v0.227c0,0.201-0.028,0.346-0.085,0.434s-0.154,0.133-0.293,0.133h-1.587v3.702
			c0,0.528,0.092,0.894,0.274,1.096c0.182,0.202,0.431,0.302,0.746,0.302c0.239,0,0.418-0.016,0.538-0.047
			c0.119-0.031,0.211-0.047,0.273-0.047C198.827,119.113,198.921,119.229,198.997,119.462z M190.987,118.603
			c0.554,0.402,1.184,0.604,1.889,0.604c0.416,0,0.841-0.068,1.275-0.207s0.828-0.303,1.181-0.492
			c-0.025-0.227-0.038-0.408-0.038-0.547v-3.854h-2.305c-0.919,0-1.621,0.188-2.105,0.566c-0.485,0.378-0.728,1.02-0.728,1.927
			C190.156,117.533,190.434,118.2,190.987,118.603z"/>
		<path fill="#FFFFFF" d="M205.854,120.322c-0.089-0.088-0.133-0.233-0.133-0.436v-12.089c0-0.201,0.044-0.347,0.133-0.435
			c0.088-0.088,0.232-0.132,0.435-0.132h3.815c1.763,0,3.177,0.526,4.24,1.577c1.064,1.052,1.597,2.729,1.597,5.034
			c0,2.317-0.532,3.999-1.597,5.044c-1.063,1.045-2.478,1.567-4.24,1.567h-3.815C206.086,120.454,205.942,120.41,205.854,120.322z
			 M209.972,119.018c1.271,0,2.298-0.415,3.078-1.247c0.781-0.831,1.172-2.141,1.172-3.929c0-1.776-0.391-3.082-1.172-3.92
			c-0.78-0.837-1.807-1.256-3.078-1.256h-2.589v10.352H209.972z"/>
		<path fill="#FFFFFF" d="M218.66,108.365v-1.059c0-0.303,0.302-0.453,0.906-0.453c0.555,0,0.831,0.15,0.831,0.453v1.059
			c0,0.302-0.302,0.453-0.906,0.453C218.937,108.818,218.66,108.667,218.66,108.365z M218.736,120.076v-9.123
			c0-0.277,0.252-0.416,0.756-0.416h0.075c0.504,0,0.756,0.139,0.756,0.416v9.123c0,0.277-0.252,0.416-0.756,0.416h-0.075
			C218.987,120.492,218.736,120.353,218.736,120.076z"/>
		<path fill="#FFFFFF" d="M224.186,120.425c-0.46-0.133-0.825-0.293-1.096-0.482c-0.271-0.188-0.406-0.358-0.406-0.51
			c0-0.125,0.078-0.314,0.236-0.566c0.157-0.252,0.299-0.377,0.425-0.377c0.025,0,0.145,0.068,0.359,0.207
			c0.214,0.139,0.481,0.265,0.803,0.378c0.32,0.113,0.677,0.17,1.067,0.17c1.233,0,1.851-0.51,1.851-1.53
			c0-0.428-0.139-0.768-0.415-1.02c-0.277-0.252-0.769-0.479-1.474-0.68c-0.995-0.29-1.682-0.652-2.06-1.087
			c-0.377-0.435-0.566-1.017-0.566-1.747c0-0.529,0.136-1.002,0.406-1.417s0.643-0.739,1.114-0.973
			c0.473-0.233,1.011-0.35,1.615-0.35c0.643,0,1.219,0.082,1.729,0.245c0.51,0.164,0.765,0.354,0.765,0.567
			c0,0.163-0.072,0.374-0.217,0.633s-0.274,0.388-0.388,0.388c-0.037-0.014-0.204-0.098-0.5-0.256
			c-0.296-0.157-0.702-0.236-1.219-0.236c-0.479,0-0.878,0.107-1.199,0.322c-0.321,0.213-0.481,0.503-0.481,0.868
			c0,0.429,0.113,0.769,0.34,1.021s0.604,0.459,1.133,0.623c0.807,0.252,1.42,0.5,1.842,0.746s0.725,0.548,0.907,0.906
			c0.183,0.359,0.273,0.828,0.273,1.408c0,0.554-0.147,1.055-0.443,1.502c-0.296,0.446-0.699,0.799-1.209,1.057
			s-1.074,0.388-1.69,0.388C225.146,120.624,224.645,120.558,224.186,120.425z"/>
		<path fill="#FFFFFF" d="M231.996,119.339c-0.755-0.818-1.133-2.072-1.133-3.76c0-1.674,0.371-2.946,1.114-3.815
			c0.743-0.868,1.839-1.304,3.287-1.304c1.284,0,2.254,0.42,2.909,1.257c0.654,0.837,0.982,2.062,0.982,3.674
			c0,0.113-0.076,0.271-0.228,0.472c-0.15,0.202-0.283,0.303-0.396,0.303h-5.969c0.075,1.045,0.346,1.813,0.813,2.305
			c0.465,0.491,1.164,0.736,2.097,0.736c0.528,0,0.984-0.066,1.369-0.198c0.384-0.132,0.702-0.265,0.954-0.396
			s0.396-0.198,0.435-0.198c0.125,0,0.268,0.126,0.425,0.378s0.236,0.44,0.236,0.566c0,0.151-0.158,0.325-0.473,0.52
			c-0.314,0.195-0.733,0.358-1.256,0.491s-1.08,0.198-1.672,0.198C233.917,120.567,232.752,120.158,231.996,119.339z
			 M237.475,114.806c0-1.99-0.756-2.985-2.267-2.985c-1.625,0-2.506,0.995-2.645,2.985H237.475z"/>
		<path fill="#FFFFFF" d="M241.63,120.076v-6.631c0-0.83-0.038-1.426-0.114-1.784c-0.075-0.359-0.113-0.558-0.113-0.595
			c0-0.152,0.12-0.262,0.359-0.331s0.459-0.104,0.661-0.104c0.176,0,0.305,0.092,0.387,0.274s0.146,0.375,0.189,0.576
			c0.044,0.202,0.072,0.334,0.085,0.396c0.402-0.44,0.862-0.786,1.379-1.038s1.039-0.379,1.567-0.379
			c0.957,0,1.71,0.271,2.258,0.813c0.548,0.542,0.821,1.291,0.821,2.248v6.555c0,0.277-0.252,0.416-0.755,0.416h-0.076
			c-0.504,0-0.755-0.139-0.755-0.416v-6.403c0-0.579-0.167-1.03-0.501-1.351c-0.334-0.321-0.81-0.482-1.426-0.482
			c-0.429,0-0.854,0.12-1.275,0.359s-0.79,0.561-1.105,0.963v6.914c0,0.277-0.252,0.416-0.755,0.416h-0.076
			C241.881,120.492,241.63,120.353,241.63,120.076z M242.196,109.195c-0.126-0.05-0.189-0.125-0.189-0.227
			c0-0.075,0.02-0.156,0.057-0.245c0.202-0.466,0.444-0.8,0.728-1.001s0.62-0.303,1.011-0.303c0.265,0,0.529,0.035,0.793,0.104
			c0.265,0.07,0.611,0.18,1.039,0.331c0.365,0.126,0.652,0.221,0.859,0.283c0.208,0.063,0.406,0.095,0.596,0.095
			c0.176,0,0.327-0.041,0.453-0.123s0.252-0.223,0.378-0.425c0.126-0.188,0.252-0.283,0.378-0.283c0.075,0,0.138,0.019,0.188,0.057
			l0.151,0.057c0.151,0.05,0.227,0.126,0.227,0.227c0,0.075-0.031,0.164-0.095,0.265c-0.201,0.453-0.44,0.781-0.718,0.982
			s-0.61,0.302-1.001,0.302c-0.453,0-1.083-0.151-1.889-0.453c-0.353-0.126-0.637-0.218-0.851-0.274s-0.415-0.084-0.604-0.084
			c-0.163,0-0.302,0.041-0.415,0.122c-0.113,0.082-0.239,0.229-0.378,0.444c-0.102,0.176-0.208,0.264-0.321,0.264
			c-0.038,0-0.107-0.012-0.208-0.037L242.196,109.195z"/>
		<path fill="#FFFFFF" d="M252.69,119.283c-0.75-0.856-1.124-2.098-1.124-3.722c0-1.637,0.378-2.896,1.133-3.778
			c0.756-0.881,1.839-1.322,3.249-1.322c1.386,0,2.446,0.438,3.184,1.313c0.736,0.875,1.104,2.138,1.104,3.787
			c0,1.638-0.361,2.881-1.086,3.731c-0.725,0.85-1.791,1.274-3.202,1.274C254.525,120.567,253.439,120.139,252.69,119.283z
			 M257.932,118.31c0.44-0.599,0.661-1.527,0.661-2.787c0-1.259-0.221-2.191-0.661-2.795c-0.441-0.605-1.121-0.907-2.041-0.907
			c-0.919,0-1.593,0.3-2.021,0.897c-0.429,0.598-0.643,1.533-0.643,2.805c0,1.26,0.214,2.188,0.643,2.787
			c0.428,0.598,1.102,0.896,2.021,0.896C256.811,119.207,257.49,118.908,257.932,118.31z"/>
		<path fill="#FFFFFF" d="M269.379,120.189l-3.23-12.41c-0.038-0.151-0.057-0.239-0.057-0.265c0-0.214,0.271-0.321,0.813-0.321
			h0.188c0.454,0,0.705,0.102,0.756,0.303l2.399,9.293c0.063,0.24,0.132,0.576,0.207,1.012c0.076,0.434,0.12,0.683,0.133,0.746
			l0.453-1.814l2.286-9.218c0.05-0.214,0.295-0.321,0.736-0.321h0.302c0.441,0,0.687,0.107,0.737,0.321l2.342,9.294
			c0.076,0.277,0.145,0.607,0.208,0.992c0.063,0.384,0.101,0.633,0.113,0.746l0.453-1.795l2.286-9.256
			c0.05-0.201,0.302-0.303,0.756-0.303h0.113c0.541,0,0.813,0.107,0.813,0.321l-0.057,0.265l-3.269,12.41
			c-0.051,0.201-0.302,0.303-0.756,0.303h-0.774c-0.453,0-0.705-0.102-0.755-0.303l-2.06-7.688l-0.396-2.456l-0.396,2.456
			l-2.06,7.688c-0.05,0.201-0.302,0.303-0.755,0.303h-0.774C269.681,120.492,269.429,120.39,269.379,120.189z"/>
		<path fill="#FFFFFF" d="M284.641,119.339c-0.755-0.818-1.133-2.072-1.133-3.76c0-1.674,0.371-2.946,1.114-3.815
			c0.743-0.868,1.839-1.304,3.287-1.304c1.284,0,2.254,0.42,2.909,1.257c0.654,0.837,0.982,2.062,0.982,3.674
			c0,0.113-0.076,0.271-0.228,0.472c-0.15,0.202-0.283,0.303-0.396,0.303h-5.969c0.075,1.045,0.346,1.813,0.813,2.305
			c0.465,0.491,1.164,0.736,2.097,0.736c0.528,0,0.984-0.066,1.369-0.198c0.384-0.132,0.702-0.265,0.954-0.396
			s0.396-0.198,0.435-0.198c0.125,0,0.268,0.126,0.425,0.378s0.236,0.44,0.236,0.566c0,0.151-0.158,0.325-0.473,0.52
			c-0.314,0.195-0.733,0.358-1.256,0.491s-1.08,0.198-1.672,0.198C286.562,120.567,285.397,120.158,284.641,119.339z
			 M290.119,114.806c0-1.99-0.756-2.985-2.267-2.985c-1.625,0-2.506,0.995-2.645,2.985H290.119z"/>
		<path fill="#FFFFFF" d="M295.711,119.15c-0.063,0.378-0.164,0.75-0.303,1.115c-0.063,0.15-0.233,0.227-0.51,0.227h-0.076
			c-0.377,0-0.566-0.139-0.566-0.416v-13.412c0-0.276,0.252-0.415,0.756-0.415h0.075c0.504,0,0.756,0.139,0.756,0.415v4.761
			c0.403-0.314,0.815-0.554,1.237-0.718s0.909-0.246,1.464-0.246c0.756,0,1.423,0.195,2.002,0.586s1.03,0.963,1.351,1.719
			c0.321,0.756,0.482,1.669,0.482,2.739c0,0.982-0.148,1.858-0.444,2.626s-0.721,1.366-1.274,1.795
			c-0.555,0.428-1.203,0.642-1.946,0.642C297.618,120.567,296.617,120.095,295.711,119.15z M300.112,118.197
			c0.402-0.662,0.604-1.604,0.604-2.824c0-1.134-0.215-2.002-0.643-2.607c-0.429-0.604-1.058-0.906-1.889-0.906
			c-0.416,0-0.829,0.072-1.237,0.217c-0.41,0.145-0.778,0.356-1.105,0.633v5.176c0.378,0.416,0.79,0.736,1.237,0.964
			c0.447,0.227,0.885,0.34,1.313,0.34C299.136,119.188,299.709,118.857,300.112,118.197z"/>
	</g>
</g>
</svg>
